<?xml version="1.0" encoding="utf-8"?>
<!-- Generator: Adobe Illustrator 23.0.6, SVG Export Plug-In . SVG Version: 6.00 Build 0)  -->
<svg version="1.1" id="Layer_1" xmlns="http://www.w3.org/2000/svg" xmlns:xlink="http://www.w3.org/1999/xlink" x="0px" y="0px"
	 viewBox="0 0 24 24" style="enable-background:new 0 0 24 24;" xml:space="preserve">
<path d="M18,1.6H6C3.6,1.6,1.6,3.6,1.6,6V18c0,2.4,1.9,4.3,4.3,4.3H18c2.4,0,4.3-1.9,4.3-4.3V6C22.4,3.6,20.4,1.6,18,1.6z M8.5,18H6
	V8.5h2.6V18z M7.2,7.4c-0.8,0-1.5-0.7-1.5-1.5s0.7-1.5,1.5-1.5s1.5,0.7,1.5,1.5S8.1,7.4,7.2,7.4z M18.9,18h-2.6v-4.8
	c0-2.9-3.5-2.7-3.5,0V18h-2.6V8.5h2.6v1.5c1.2-2.2,6-2.4,6,2.1V18z"/>
</svg>
