<svg xmlns="http://www.w3.org/2000/svg" viewBox="0 0 220.5 219.5"><defs><style>.cls-1{fill:#8e78ff;}.cls-2{fill:#a479e5;}.cls-3{fill:#ba7aca;}.cls-4{fill:#d07bb0;}.cls-5{fill:#e67c95;}.cls-6{fill:#fc7d7b;}.cls-7{fill:none;}</style></defs><title>Asset 4</title><g id="Layer_2" data-name="Layer 2"><g id="Layer_1-2" data-name="Layer 1"><rect class="cls-1" x="188.5" y="188.5" width="32" height="31"/><rect class="cls-1" x="157.5" y="188.5" width="32" height="31"/><rect class="cls-1" x="126.5" y="188.5" width="32" height="31"/><rect class="cls-1" x="95.5" y="188.5" width="32" height="31"/><rect class="cls-1" x="65.5" y="188.5" width="32" height="31"/><rect class="cls-1" x="34.5" y="188.5" width="32" height="31"/><rect class="cls-2" x="188.5" y="157.7" width="32" height="31"/><rect class="cls-2" x="157.5" y="157.7" width="32" height="31"/><rect class="cls-2" x="126.5" y="157.7" width="32" height="31"/><rect class="cls-2" x="95.5" y="157.7" width="32" height="31"/><rect class="cls-2" x="65.5" y="157.7" width="32" height="31"/><rect class="cls-2" x="34.5" y="157.7" width="32" height="31"/><rect class="cls-3" x="188.5" y="126.9" width="32" height="31"/><rect class="cls-3" x="157.5" y="126.9" width="32" height="31"/><rect class="cls-3" x="126.5" y="126.9" width="32" height="31"/><rect class="cls-3" x="95.5" y="126.9" width="32" height="31"/><rect class="cls-3" x="65.5" y="126.9" width="32" height="31"/><rect class="cls-3" x="34.5" y="126.9" width="32" height="31"/><rect class="cls-4" x="188.5" y="96.1" width="32" height="31"/><rect class="cls-4" x="157.5" y="96.1" width="32" height="31"/><rect class="cls-4" x="126.5" y="96.1" width="32" height="31"/><rect class="cls-4" x="95.5" y="96.1" width="32" height="31"/><rect class="cls-4" x="65.5" y="96.1" width="32" height="31"/><rect class="cls-4" x="34.5" y="96.1" width="32" height="31"/><rect class="cls-5" x="188.5" y="65.3" width="32" height="31"/><rect class="cls-5" x="157.5" y="65.3" width="32" height="31"/><rect class="cls-5" x="126.5" y="65.3" width="32" height="31"/><rect class="cls-5" x="95.5" y="65.3" width="32" height="31"/><rect class="cls-5" x="65.5" y="65.3" width="32" height="31"/><rect class="cls-5" x="34.5" y="65.3" width="32" height="31"/><rect class="cls-6" x="188.5" y="34.5" width="32" height="31"/><rect class="cls-6" x="157.5" y="34.5" width="32" height="31"/><rect class="cls-6" x="126.5" y="34.5" width="32" height="31"/><rect class="cls-6" x="95.5" y="34.5" width="32" height="31"/><rect class="cls-6" x="65.5" y="34.5" width="32" height="31"/><rect class="cls-6" x="34.5" y="34.5" width="32" height="31"/><line class="cls-7" x1="119.41" y1="32.85" x2="119.41" y2="198.9"/><path d="M59.74,39.62a17.54,17.54,0,1,1-.05-11H51.33a9.07,9.07,0,0,0-8.25-4.95c-5.5,0-9.9,4.75-9.9,10.5s4.4,10.5,9.9,10.5a9.32,9.32,0,0,0,8.31-5.05Z"/><path d="M87.89,40.17c0,7-5.56,11.45-12.56,11.45s-12.6-4.4-12.6-11.45,5.7-11.5,12.6-11.5S87.89,33.27,87.89,40.17Zm-7.46,0c0-2.75-1.2-5.7-5.1-5.7s-5.15,2.95-5.15,5.7S71.28,46,75.33,46,80.43,43,80.43,40.22Z"/><path d="M92.13,29.12h7.5V41.67c0,2.55,1,4,3.35,4s4.2-2.55,4.2-5.5v-11h7.51V51.17h-7.51v-2.7a8.45,8.45,0,0,1-6.75,3.2c-5.9,0-8.3-4.05-8.3-10Z"/><path d="M120.68,51.17V13.66h7.5V51.17Z"/><path d="M158.93,51.17h-7.5V48.52c-1.5,2.25-4.75,3.15-7.55,3.15-6.25,0-10.95-5.4-10.95-11.5s4.7-11.55,10.95-11.55a9.29,9.29,0,0,1,7.55,3.2V13.66h7.5Zm-12.75-16.5a5.51,5.51,0,1,0,5.25,5.5A5.4,5.4,0,0,0,146.18,34.67Z"/><path d="M40.58,111.17H26.83v-34h11.7c5.8,0,9.51,3.85,9.51,8.51,0,3.45-1.51,6-4.06,7.2a8.6,8.6,0,0,1,6.91,8.55C50.89,107.27,47.08,111.17,40.58,111.17ZM36.93,83.06h-2.6V91h2.6a4,4,0,1,0,0-7.9Zm2.15,14.06H34.33v8.2h4.75a4.1,4.1,0,1,0,0-8.2Z"/><path d="M78.19,101.07H61.08c0,2.55,1.8,5.25,4.75,5.25,2.65,0,4.3-1.75,4.35-3.35h7.65c-1.3,5.8-6,8.7-11.85,8.7-7.6,0-12.85-4.5-12.85-11.5S58.58,88.62,66,88.62c6.7,0,12.25,4,12.25,11C78.23,100.12,78.19,100.62,78.19,101.07ZM71,97.52a4.61,4.61,0,0,0-4.9-4.1c-4.7,0-4.95,4.1-4.95,4.1Z"/><path d="M62.64,171.17h-8.9l-7.05-23.86-7.11,23.86h-8.9l-6.6-34h8.25l4,23.46L43,137.16h7.35L57,160.62l4-23.46h8.25Z"/><path d="M96.39,160.17c0,7.05-5.56,11.45-12.56,11.45s-12.6-4.4-12.6-11.45c0-6.9,5.7-11.5,12.6-11.5S96.39,153.27,96.39,160.17Zm-7.46.05c0-2.75-1.2-5.7-5.1-5.7s-5.15,2.95-5.15,5.7,1.1,5.75,5.15,5.75S88.93,163,88.93,160.22Z"/><path d="M108.63,160.17v11h-7.5v-22h7.5v2.7a7,7,0,0,1,5.8-3.2,5.71,5.71,0,0,1,2.25.5v6.8h-.1a3.76,3.76,0,0,0-3-1.25C110.78,154.67,108.63,157.52,108.63,160.17Z"/><path d="M133.23,155.82c-.25-2-2.1-2.55-3.55-2.55s-3,.75-3,2c0,3.1,14.25,0,14.25,9.25,0,5.2-4.45,7.1-10.85,7.1-6.55,0-11.5-2.45-11.9-8.7h7.45c0,3.3,3,3.5,4.6,3.5s3.15-.65,3.15-1.85c0-4.65-14.25-1-14.25-9,0-4.5,3.45-7,10.75-7,5.8,0,10.05,2.15,10.7,7.2Z"/><path d="M169.23,161.07h-17.1c0,2.55,1.8,5.25,4.75,5.25,2.65,0,4.3-1.75,4.35-3.35h7.65c-1.3,5.8-6,8.7-11.85,8.7-7.6,0-12.85-4.5-12.85-11.5s5.45-11.55,12.85-11.55c6.7,0,12.25,4,12.25,11C169.28,160.12,169.23,160.62,169.23,161.07Zm-7.15-3.55a4.61,4.61,0,0,0-4.9-4.1c-4.7,0-5,4.1-5,4.1Z"/><path d="M189.08,3V188.79H3V3H189.08m3-3H0V191.79H192.08V0Z"/></g></g></svg>